<svg width="20" height="20" viewBox="0 0 20 20" fill="none" xmlns="http://www.w3.org/2000/svg">
<g id="Telegram - Original" clip-path="url(#clip0_2961_2793)">
<path id="Subtract" fill-rule="evenodd" clip-rule="evenodd" d="M20 10C20 15.5228 15.5228 20 10 20C4.47715 20 0 15.5228 0 10C0 4.47715 4.47715 0 10 0C15.5228 0 20 4.47715 20 10ZM10.3584 7.38197C9.38573 7.78653 7.4418 8.62386 4.5266 9.89397C4.05321 10.0822 3.80524 10.2664 3.78266 10.4465C3.74451 10.7508 4.12562 10.8706 4.64459 11.0338C4.71518 11.056 4.78832 11.079 4.8633 11.1034C5.37388 11.2693 6.06071 11.4635 6.41776 11.4712C6.74164 11.4782 7.10313 11.3447 7.50222 11.0706C10.226 9.23203 11.632 8.30271 11.7203 8.28267C11.7826 8.26854 11.8689 8.25077 11.9273 8.30274C11.9858 8.35471 11.98 8.45313 11.9739 8.47954C11.9361 8.64048 10.4401 10.0313 9.66595 10.751C9.42461 10.9754 9.25341 11.1345 9.21842 11.1709C9.14002 11.2523 9.06013 11.3293 8.98334 11.4034C8.50899 11.8606 8.15328 12.2035 9.00303 12.7635C9.41138 13.0326 9.73815 13.2551 10.0641 13.4771C10.4202 13.7196 10.7753 13.9614 11.2347 14.2626C11.3518 14.3393 11.4635 14.419 11.5724 14.4966C11.9867 14.792 12.359 15.0574 12.8188 15.0151C13.0861 14.9905 13.3621 14.7392 13.5022 13.9898C13.8335 12.2188 14.4847 8.38158 14.6352 6.80034C14.6484 6.66181 14.6318 6.48451 14.6185 6.40668C14.6052 6.32885 14.5773 6.21796 14.4762 6.13587C14.3563 6.03865 14.1714 6.01814 14.0887 6.0196C13.7125 6.02623 13.1355 6.22688 10.3584 7.38197Z" fill="#1D1E20"/>
</g>
<defs>
<clipPath id="clip0_2961_2793">
<rect width="20" height="20" fill="white"/>
</clipPath>
</defs>
</svg>
